<svg width="24" height="24" viewBox="0 0 24 24" fill="none" xmlns="http://www.w3.org/2000/svg">
<path d="M13.9993 4H14.7493C14.7493 3.72564 14.5995 3.47317 14.3587 3.34171C14.1179 3.21024 13.8245 3.22076 13.5937 3.36913L13.9993 4ZM13.9993 20L13.5937 20.6309C13.8245 20.7792 14.1179 20.7898 14.3587 20.6583C14.5995 20.5268 14.7493 20.2744 14.7493 20H13.9993ZM2 8.5V7.75C1.58579 7.75 1.25 8.08579 1.25 8.5H2ZM2 15.5H1.25C1.25 15.9142 1.58579 16.25 2 16.25V15.5ZM7 8.5V9.25H7.2203L7.4056 9.13087L7 8.5ZM7 15.5L7.4056 14.8691L7.2203 14.75H7V15.5ZM13.2493 4V20H14.7493V4H13.2493ZM1.25 8.5V15.5H2.75V8.5H1.25ZM2 9.25H7V7.75H2V9.25ZM2 16.25H7V14.75H2V16.25ZM7.4056 9.13087L14.4049 4.63087L13.5937 3.36913L6.5944 7.86913L7.4056 9.13087ZM6.5944 16.1309L13.5937 20.6309L14.4049 19.3691L7.4056 14.8691L6.5944 16.1309Z" fill="#141B34"/>
<path d="M17 9.5L22 14.5M17 14.5L22 9.5" stroke="#141B34" stroke-width="1.5" stroke-linejoin="round"/>
</svg>
