<svg width="24" height="24" viewBox="0 0 24 24" fill="none" xmlns="http://www.w3.org/2000/svg">
<path d="M13.9998 4H14.7498C14.7498 3.72564 14.6 3.47317 14.3592 3.34171C14.1183 3.21024 13.825 3.22076 13.5942 3.36913L13.9998 4ZM13.9998 20L13.5942 20.6309C13.825 20.7792 14.1183 20.7898 14.3592 20.6583C14.6 20.5268 14.7498 20.2744 14.7498 20H13.9998ZM2.00049 8.5V7.75C1.58627 7.75 1.25049 8.08579 1.25049 8.5H2.00049ZM2.00049 15.5H1.25049C1.25049 15.9142 1.58627 16.25 2.00049 16.25V15.5ZM7.00049 8.5V9.25H7.22078L7.40609 9.13087L7.00049 8.5ZM7.00049 15.5L7.40609 14.8691L7.22078 14.75H7.00049V15.5ZM13.2498 4V20H14.7498V4H13.2498ZM1.25049 8.5V15.5H2.75049V8.5H1.25049ZM2.00049 9.25H7.00049V7.75H2.00049V9.25ZM2.00049 16.25H7.00049V14.75H2.00049V16.25ZM7.40609 9.13087L14.4054 4.63087L13.5942 3.36913L6.59489 7.86913L7.40609 9.13087ZM6.59489 16.1309L13.5942 20.6309L14.4054 19.3691L7.40609 14.8691L6.59489 16.1309Z" fill="#141B34"/>
<path d="M17 9C17.6254 9.81968 18 10.8634 18 12C18 13.1366 17.6254 14.1803 17 15" stroke="#141B34" stroke-width="1.5" stroke-linejoin="round"/>
<path d="M20 7C21.2508 8.36613 22 10.1057 22 12C22 13.8943 21.2508 15.6339 20 17" stroke="#141B34" stroke-width="1.5" stroke-linejoin="round"/>
</svg>
